<?xml version="1.0" encoding="utf-8"?>
<!-- Generator: Adobe Illustrator 22.1.0, SVG Export Plug-In . SVG Version: 6.00 Build 0)  -->
<svg version="1.1" id="圖層_1" xmlns="http://www.w3.org/2000/svg" xmlns:xlink="http://www.w3.org/1999/xlink" x="0px" y="0px"
	 viewBox="0 0 200 160" style="enable-background:new 0 0 200 160;" xml:space="preserve">
<style type="text/css">
	.st0{fill:#4574B3;}
	.st1{fill:#FFFFFF;}
	.st2{fill:#66C8EE;}
	.st3{fill:#018CCA;}
	.st4{fill:#027BBE;}
	.st5{fill:#E1261E;}
	.st6{fill:#0FB33D;}
	.st7{fill:#00C930;}
	.st8{fill:#00C831;fill-opacity:0;}
	.st9{fill:#ED2C06;}
	.st10{fill:#F9D212;}
	.st11{fill:#5DB52A;}
	.st12{fill:#1587E5;}
	.st13{fill:url(#SVGID_1_);}
	.st14{fill:#BE2526;}
	.st15{fill:#E91616;}
	.st16{fill:#D44D43;}
	.st17{fill:url(#SVGID_2_);}
	.st18{fill:url(#SVGID_3_);}
	.st19{fill:#E6162D;}
	.st20{fill:#FF9933;}
	.st21{fill:#016AC6;}
</style>
<g>
	<circle class="st0" cx="20" cy="20" r="20"/>
	<g>
		<path class="st1" d="M26,8h-3.1c-3.5,0-5.8,2.3-5.8,5.9v2.7H14c-0.3,0-0.5,0.2-0.5,0.5V21c0,0.3,0.2,0.5,0.5,0.5h3v10
			c0,0.3,0.2,0.5,0.5,0.5h4.1c0.3,0,0.5-0.2,0.5-0.5v-10h3.7c0.3,0,0.5-0.2,0.5-0.5v-3.9c0-0.1-0.1-0.3-0.1-0.3
			c-0.1-0.1-0.2-0.1-0.3-0.1h-3.7v-2.3c0-1.1,0.3-1.7,1.7-1.7H26c0.3,0,0.5-0.2,0.5-0.5V8.5C26.5,8.2,26.3,8,26,8z"/>
	</g>
</g>
<g>
	<circle class="st2" cx="60" cy="20" r="20"/>
	<g>
		<g>
			<path class="st1" d="M72.3,12.3c-0.9,0.4-1.9,0.7-2.9,0.8c1-0.6,1.8-1.6,2.2-2.8c-1,0.6-2.1,1-3.2,1.2c-0.9-1-2.2-1.6-3.7-1.6
				c-2.8,0-5.1,2.3-5.1,5c0,0.4,0,0.8,0.1,1.2c-4.2-0.2-7.9-2.2-10.4-5.3c-0.3,0.8-0.6,1.7-0.6,2.6c0,1.8,0.9,3.3,2.2,4.2
				c-0.8,0-1.6-0.3-2.3-0.6v0.1c0,2.4,1.7,4.5,4.1,5c-0.4,0.1-0.9,0.2-1.3,0.2c-0.3,0-0.6,0-1-0.1c0.6,2,2.5,3.5,4.7,3.5
				c-1.7,1.4-3.9,2.2-6.3,2.2c-0.4,0-0.8,0-1.2-0.1c2.2,1.4,4.9,2.3,7.7,2.3c9.3,0,14.4-7.7,14.4-14.4V15
				C70.8,14.2,71.8,13.3,72.3,12.3z"/>
		</g>
	</g>
</g>
<g>
	<circle class="st3" cx="20" cy="60" r="20"/>
	<g id="XMLID_818_">
		<path id="XMLID_819_" class="st1" d="M31,62.5c0.2-0.8,0.3-1.6,0.3-2.4c0-6.2-5.1-11.3-11.3-11.3c-0.7,0-1.3,0.1-1.9,0.2
			c-1-0.6-2.2-1-3.5-1c-3.6,0-6.5,2.9-6.5,6.5c0,1.2,0.3,2.3,0.9,3.3c-0.1,0.7-0.2,1.5-0.2,2.3c0,6.2,5.1,11.3,11.3,11.3
			c0.7,0,1.4-0.1,2.1-0.2c0.9,0.5,2,0.8,3.1,0.8c3.6,0,6.5-2.9,6.5-6.5C31.6,64.4,31.5,63.4,31,62.5z M25.8,65.5
			c-0.5,0.7-1.3,1.3-2.3,1.7c-1,0.4-2.2,0.6-3.5,0.6c-1.6,0-3-0.3-4-0.8c-0.8-0.4-1.4-1-1.9-1.6c-0.5-0.7-0.7-1.4-0.7-2
			c0-0.4,0.2-0.8,0.5-1.1s0.7-0.4,1.2-0.4c0.4,0,0.7,0.1,1,0.3c0.3,0.2,0.5,0.5,0.7,1s0.4,0.8,0.6,1.2c0.2,0.3,0.5,0.5,0.9,0.7
			s1,0.3,1.6,0.3c0.9,0,1.7-0.2,2.3-0.6c0.6-0.4,0.8-0.8,0.8-1.4c0-0.4-0.1-0.8-0.4-1.1s-0.7-0.5-1.2-0.7s-1.2-0.3-2.1-0.5
			c-1.2-0.3-2.2-0.5-2.9-0.9l0,0c-0.8-0.3-1.5-0.8-1.9-1.4c-0.5-0.6-0.7-1.4-0.7-2.3s0.3-1.6,0.8-2.3s1.2-1.2,2.2-1.5
			c0.9-0.3,2.1-0.5,3.3-0.5c1,0,1.9,0.1,2.6,0.3s1.4,0.5,1.9,0.9s0.9,0.8,1.1,1.2s0.4,0.9,0.4,1.3s-0.2,0.8-0.5,1.1
			s-0.7,0.5-1.2,0.5c-0.4,0-0.7-0.1-1-0.3c-0.2-0.2-0.4-0.5-0.7-0.9c-0.3-0.5-0.6-1-1-1.3s-1-0.4-1.9-0.4c-0.8,0-1.5,0.2-2,0.5
			S17,55.8,17,56.2c0,0.3,0.1,0.5,0.2,0.7c0.2,0.2,0.4,0.4,0.7,0.5c0.3,0.1,0.6,0.3,0.9,0.4s0.8,0.2,1.6,0.4
			c0.8,0.2,1.5,0.3,2.1,0.5c0.1,0,0.3,0.1,0.4,0.1c0.8,0.2,1.4,0.5,1.9,0.9s1,0.8,1.3,1.3s0.5,1.2,0.5,2
			C26.5,63.9,26.3,64.8,25.8,65.5z"/>
	</g>
</g>
<g>
	<circle class="st4" cx="180" cy="20" r="20"/>
	<g>
		<path id="LinkedIn" class="st1" d="M191.5,22.4v8.5h-4.9V23c0-2-0.7-3.4-2.5-3.4c-1.4,0-2.2,0.9-2.5,1.8c-0.1,0.3-0.2,0.8-0.2,1.2
			v8.3h-4.9c0,0,0.1-13.5,0-14.8h4.9v2.1l0,0l0,0l0,0c0.7-1,1.8-2.5,4.4-2.5C189.1,15.8,191.5,17.9,191.5,22.4z M171.3,9
			c-1.7,0-2.8,1.1-2.8,2.6c0,1.4,1.1,2.6,2.7,2.6l0,0c1.7,0,2.8-1.1,2.8-2.6S173,9,171.3,9z M168.8,31h4.9V16.2h-4.9V31z"/>
	</g>
</g>
<g>
	<circle class="st5" cx="140" cy="20" r="20"/>
	<g>
		<path class="st1" d="M151.7,22v7.7c0,0.5-0.1,0.9-0.3,1.3c-0.2,0.4-0.5,0.8-0.8,1.1c-0.4,0.3-0.8,0.5-1.2,0.7
			c-0.5,0.2-1,0.3-1.5,0.3h-15.7c-0.5,0-1-0.1-1.5-0.3s-0.9-0.4-1.2-0.7c-0.3-0.3-0.6-0.7-0.8-1.1c-0.2-0.4-0.3-0.8-0.3-1.3V22
			c0-0.5,0.1-0.9,0.3-1.3c0.2-0.4,0.5-0.8,0.8-1.1c0.3-0.3,0.8-0.5,1.2-0.7c0.5-0.2,1-0.3,1.5-0.3h15.7c0.5,0,1,0.1,1.5,0.3
			s0.9,0.4,1.2,0.7c0.4,0.3,0.6,0.7,0.8,1.1C151.6,21,151.7,21.5,151.7,22z M133.2,30.5v-8.1h1.9v-1.2h-5.2v1.2h1.7v8.1H133.2z
			 M133.9,11.6l-2.1-4.7h1.9l1.1,3.5l1.1-3.5h1.9l-2,4.7v5.5h-1.9V11.6z M138.9,23.5h-1.6v4.3c0,0.3,0,0.6,0,0.7
			c0,0.2,0,0.3-0.1,0.3c0,0.2-0.2,0.3-0.4,0.4c-0.2,0.1-0.4,0-0.5-0.4c0,0,0-0.2,0-0.3c0-0.2,0-0.4,0-0.7v-4.3h-1.6v4.3
			c0,0.3,0,0.6,0,0.8c0,0.2,0,0.4,0,0.5c0,0.2,0,0.4,0.1,0.6c0,0.2,0.1,0.4,0.3,0.5c0.2,0.1,0.4,0.2,0.7,0.2s0.5,0,0.7-0.1
			s0.5-0.2,0.7-0.3s0.4-0.3,0.4-0.5v0.9h1.3V23.5L138.9,23.5z M137.6,12.4c0-0.6,0.1-1.2,0.2-1.6c0.1-0.4,0.4-0.7,0.7-0.9
			c0.3-0.2,0.7-0.4,1.2-0.4c0.4,0,0.8,0.1,1.1,0.2c0.3,0.1,0.5,0.3,0.7,0.6c0.1,0.2,0.2,0.4,0.3,0.7s0.1,0.7,0.1,1.2V14
			c0,0.7,0,1.1-0.1,1.4c0,0.3-0.1,0.6-0.4,0.9c-0.2,0.3-0.4,0.5-0.7,0.6s-0.6,0.2-1,0.2s-0.7-0.1-1-0.2s-0.5-0.3-0.6-0.5
			c-0.1-0.2-0.3-0.4-0.4-0.8c-0.1-0.3-0.1-0.8-0.1-1.4C137.6,14.3,137.6,12.4,137.6,12.4z M138.9,15.3c0,0.2,0.1,0.4,0.2,0.5
			c0.1,0.1,0.3,0.2,0.5,0.2c0.2,0,0.4-0.1,0.5-0.2c0.1-0.1,0.2-0.3,0.2-0.5v-3.8c0-0.2-0.1-0.4-0.2-0.5c-0.1-0.1-0.3-0.2-0.5-0.2
			c-0.2,0-0.4,0.1-0.5,0.2c-0.1,0.1-0.2,0.3-0.2,0.5V15.3L138.9,15.3z M144.2,28.5v-3.6c0-0.7-0.2-1.2-0.7-1.5
			c-0.2-0.1-0.4-0.1-0.6-0.1c-0.4,0-0.8,0.2-1.3,0.5V21H140v9.2h1.3l0.1-0.6c0.4,0.4,0.8,0.6,1.2,0.7c0.3,0.1,0.6,0,0.9-0.1
			c0.2-0.1,0.4-0.4,0.6-0.7C144.2,29.3,144.2,29,144.2,28.5z M142.3,24.1c0.2,0,0.3,0.1,0.5,0.2c0.1,0.1,0.2,0.2,0.2,0.4v4.1
			c0,0.1-0.1,0.3-0.2,0.4c-0.1,0.1-0.3,0.2-0.5,0.2s-0.4-0.1-0.5-0.2c-0.1-0.1-0.2-0.2-0.2-0.4v-4.1c0-0.1,0.1-0.3,0.2-0.4
			S142.1,24.1,142.3,24.1z M142.9,16.4c0-0.1-0.1-0.2-0.1-0.3s0-0.2-0.1-0.3c0-0.1,0-0.3,0-0.5v-0.8V9.7h1.5v5.6
			c0,0.1,0.1,0.3,0.2,0.4c0.1,0.1,0.2,0.2,0.4,0.2s0.3-0.1,0.4-0.2c0.1-0.1,0.2-0.2,0.2-0.4V9.6h1.4v7.1H145v-0.6
			c-0.2,0.2-0.3,0.4-0.5,0.5s-0.4,0.2-0.6,0.2c-0.3,0-0.5-0.1-0.7-0.2C143.3,16.8,143.2,16.6,142.9,16.4z M149.3,28h-1.2v0.2v0.6
			c0,0.2-0.1,0.3-0.2,0.4c-0.1,0.1-0.3,0.2-0.5,0.2h-0.2c-0.2,0-0.3-0.1-0.5-0.2c-0.1-0.1-0.2-0.2-0.2-0.4v-0.1V28v-0.9h2.8v-1
			c0-0.4,0-0.7,0-1s0-0.6-0.1-0.8c0-0.3-0.2-0.6-0.4-0.8c-0.2-0.2-0.5-0.3-0.8-0.4s-0.6-0.1-1,0c-0.3,0-0.6,0.2-0.9,0.3
			c-0.3,0.2-0.5,0.5-0.7,0.9c-0.1,0.4-0.2,0.9-0.2,1.5V28c0,0.9,0.2,1.6,0.7,1.9c0.4,0.4,0.9,0.5,1.4,0.5h0.1c0.5,0,1-0.3,1.5-0.7
			c0.3-0.3,0.5-0.7,0.5-1.2C149.3,28.5,149.3,28.3,149.3,28z M147.9,26h-1.5v-0.9c0-0.2,0.1-0.3,0.2-0.5c0.1-0.1,0.3-0.2,0.5-0.2
			h0.1c0.2,0,0.4,0.1,0.5,0.2s0.2,0.3,0.2,0.5V26z"/>
	</g>
</g>
<g>
	<circle class="st6" cx="20" cy="100" r="20"/>
	<g>
		<g>
			<path id="WhatsApp" class="st1" d="M34,99.7c0,7.6-6.2,13.6-13.8,13.6c-2.5,0-4.7-0.6-6.6-1.8L6,114l2.4-7.4c-1.3-2.1-2-4.4-2-7
				C6.4,92,12.6,86,20.2,86S34,92.2,34,99.7z M20.2,88.2c-6.4,0-11.6,5.1-11.6,11.4c0,2.6,0.8,4.8,2.2,6.8l-1.4,4.2l4.4-1.4
				c1.9,1.2,4,1.9,6.3,1.9c6.4,0,11.5-5.1,11.5-11.4C31.8,93.3,26.6,88.2,20.2,88.2z M27.2,102.8c-0.1-0.1-0.4-0.2-0.7-0.4
				s-2-0.9-2.3-1c-0.4-0.1-0.6-0.1-0.7,0.1c-0.2,0.4-0.8,1-1,1.3s-0.4,0.2-0.7,0.1s-1.4-0.5-2.7-1.6c-1-0.9-1.6-2-1.9-2.3
				c-0.2-0.4,0-0.5,0.1-0.7c0.1-0.1,0.4-0.4,0.5-0.6s0.2-0.4,0.4-0.6s0-0.5,0-0.6c-0.1-0.1-0.7-1.9-1-2.4c-0.2-0.7-0.6-0.6-0.7-0.6
				c-0.2,0-0.5,0-0.7,0s-0.6,0.1-0.9,0.5c-0.4,0.4-1.2,1.2-1.2,2.8c0,1.6,1.2,3.3,1.4,3.5c0.1,0.2,2.3,3.7,5.7,5s3.4,0.9,4.1,0.8
				c0.6,0,2-0.8,2.3-1.6C27.2,103.6,27.2,102.9,27.2,102.8z"/>
		</g>
	</g>
</g>
<g>
	<circle class="st7" cx="180" cy="60" r="20"/>
	<path class="st1" d="M180,46.3c-8,0-14.5,5.4-14.5,12.1c0,5.7,4.8,10.3,11.2,11.5c0.1,0,0.6,0.1,0.7,0.2c2.4,0.6,2.6,1.1,2.2,3.4
		c0,0.1,0.1,0.2,0.2,0.1c5-2.8,14.7-8.1,14.7-15.2C194.5,51.7,188,46.3,180,46.3z M175.3,61.4c0,0.2-0.1,0.3-0.3,0.3h-3.2
		c-0.2,0-0.3-0.1-0.3-0.3v-5.8c0-0.2,0.1-0.3,0.3-0.3h1c0.2,0,0.3,0.1,0.3,0.3v4.7h1.9c0.2,0,0.3,0.1,0.3,0.3V61.4z M177.8,61.4
		c0,0.2-0.1,0.3-0.3,0.3h-1c-0.2,0-0.3-0.1-0.3-0.3v-5.8c0-0.2,0.1-0.3,0.3-0.3h1c0.2,0,0.3,0.1,0.3,0.3V61.4z M184.2,61.4
		c0,0.2-0.1,0.3-0.3,0.3l-1-0.1c-0.2,0-0.2,0-0.3-0.1l-2.4-3.6v3.5c0,0.2-0.1,0.3-0.3,0.3H179c-0.2,0-0.3-0.1-0.3-0.3v-5.8
		c0-0.2,0.1-0.3,0.3-0.3h1.1c0.2,0,0.2,0,0.3,0.1l2.3,3.6v-3.4c0-0.2,0.1-0.3,0.3-0.3h0.9c0.2,0,0.3,0.1,0.3,0.3
		C184.2,55.6,184.2,61.4,184.2,61.4z M189,61.4c0,0.2-0.1,0.3-0.3,0.3l-3.2,0.1c-0.2,0-0.3-0.1-0.3-0.3v-5.8c0-0.2,0.1-0.3,0.3-0.3
		h3.1c0.2,0,0.3,0.1,0.3,0.3v0.8c0,0.2-0.1,0.3-0.3,0.3h-1.9v1h1.7c0.2,0,0.3,0.1,0.3,0.3v0.8c0,0.2-0.1,0.3-0.3,0.3h-1.7v1.1h2
		c0.2,0,0.3,0.1,0.3,0.3L189,61.4L189,61.4z"/>
</g>
<g>
	<circle class="st8" cx="60" cy="100" r="20"/>
	<circle class="st8" cx="60" cy="100" r="20"/>
	<g>
		<path class="st9" d="M73.7,106c-1.5-1.1-3.5-1-4.6,0.6c-1.1,1.5-8.7,11.1-21.1,7.1c0.4,0.4,1,0.8,1.5,1.1
			c8.2,5.7,19.4,3.7,25.1-4.3C75.8,108.9,75.3,107.1,73.7,106z"/>
		<path class="st10" d="M49.7,104.8c-0.8-1.7-5.3-13,4.4-21.8c-0.6,0.1-1.1,0.4-1.8,0.7c-9,4.2-13,15-8.7,24
			c0.8,1.7,2.6,2.1,4.3,1.4C49.6,108.2,50.6,106.4,49.7,104.8z"/>
		<path class="st11" d="M61.7,82c-1.9-0.1-3.2,1.2-3.3,3.1c-0.1,1.8,0.8,3.5,2.8,3.6c1.9,0.1,13.9,1.9,16.6,14.7
			c0.1-0.6,0.3-1.2,0.3-1.8C78.9,91.7,71.5,83,61.7,82z"/>
		<path class="st12" d="M53.5,101c-0.6,1.4-0.7,2.6-0.1,2.8c0.3,0.1,0.8-0.1,1.2-0.8c0.1,0.7,0.7,1.4,1.2,1.9
			c-0.7,0.3-1.1,0.7-1.1,1.1c0,0.7,1.2,1.4,2.6,1.4s2.5-0.6,2.6-1.1h0.3c0.1,0.7,1.2,1.1,2.6,1.1c1.5,0,2.6-0.6,2.6-1.4
			c0-0.4-0.4-0.8-1.1-1.1c0.7-0.6,1.1-1.2,1.2-1.9c0.4,0.7,1,1.1,1.2,0.8c0.4-0.3,0.4-1.5-0.1-2.8c-0.4-1.1-1.1-1.8-1.5-1.9V99
			c0-0.4-0.1-0.8-0.3-1.1c0,0,0,0,0-0.1s0-0.4-0.1-0.6c-0.1-2.8-1.9-4.9-4.7-4.9c-2.9,0-4.6,2.2-4.7,4.9c-0.1,0.1-0.1,0.3-0.1,0.6
			c0,0,0,0,0,0.1c-0.1,0.3-0.3,0.7-0.3,1.1v0.1C54.6,99.2,54,99.9,53.5,101z"/>
	</g>
</g>
<g>
	
		<linearGradient id="SVGID_1_" gradientUnits="userSpaceOnUse" x1="85.8579" y1="792.1422" x2="114.1421" y2="763.8578" gradientTransform="matrix(1 0 0 1 0 -678)">
		<stop  offset="0.1155" style="stop-color:#FF9F06"/>
		<stop  offset="0.4443" style="stop-color:#DB635E"/>
		<stop  offset="0.8274" style="stop-color:#B321BE"/>
		<stop  offset="1" style="stop-color:#A307E5"/>
	</linearGradient>
	<circle class="st13" cx="100" cy="100" r="20"/>
	<path class="st1" d="M100,93.8c-3.4,0-6.2,2.7-6.2,6.2c0,3.4,2.7,6.2,6.2,6.2c3.4,0,6.2-2.8,6.2-6.2S103.5,93.8,100,93.8z
		 M100,104.4c-2.4,0-4.4-2-4.4-4.4s2-4.4,4.4-4.4s4.4,2,4.4,4.4S102.4,104.4,100,104.4z M106.8,88H93.2c-2.9,0-5.2,2.3-5.2,5.2v13.6
		c0,2.9,2.3,5.2,5.2,5.2h13.6c2.9,0,5.2-2.3,5.2-5.2V93.2C112,90.3,109.7,88,106.8,88z M110,106.8c0,1.8-1.4,3.2-3.2,3.2H93.2
		c-1.8,0-3.2-1.4-3.2-3.2V93.2c0-1.8,1.4-3.2,3.2-3.2h13.6c1.8,0,3.2,1.4,3.2,3.2C110,93.2,110,106.8,110,106.8z M108.1,93
		c0,0.7-0.6,1.3-1.2,1.2c-0.7,0-1.2-0.6-1.2-1.2s0.6-1.2,1.2-1.2S108.1,92.4,108.1,93z"/>
</g>
<g>
	<circle class="st14" cx="100" cy="60" r="20"/>
	<path class="st1" d="M100,45.2c-8.2,0-14.8,6.6-14.8,14.8c0,5.8,3.4,10.9,8.3,13.3c0.3-4,2-7.7,2.7-11c-1.5-2.5,0.2-7.6,3.3-6.3
		c3.9,1.5-3.3,9.3,1.5,10.3c5.1,1,7.1-8.8,4-12c-4.5-4.6-13.2-0.1-12.1,6.5c0.3,1.6,1.9,2.1,0.7,4.3c-2.9-0.6-3.8-2.9-3.7-6
		c0.2-5,4.5-8.5,8.8-9c5.5-0.6,10.6,2,11.3,7.1c0.8,5.8-2.5,12.1-8.3,11.6c-1.6,0-2.3-0.7-3.5-1.5c-0.5,2.4-1.2,4.9-2.4,6.9
		c1.3,0.4,2.7,0.6,4.2,0.6c8.2,0,14.8-6.6,14.8-14.8S108.2,45.2,100,45.2z"/>
</g>
<g>
	<circle class="st15" cx="140" cy="60" r="20"/>
	<path class="st1" d="M141.3,72.3h-11.1V47.7h10.6c5,0.1,7.7,2.1,8,5.9c0,2.9-1.5,4.8-4.4,5.8c3.1,0.7,4.9,2.6,5.3,5.7
		C149.7,69.9,146.9,72.3,141.3,72.3z M140,51.8h-4.6v5.9h4.6c2.2-0.1,3.3-1.1,3.4-3.1C143.3,52.8,142.2,51.9,140,51.8z M140.5,61.8
		h-5.1v6.5h5c2.5,0,3.8-1.1,3.9-3.3C144.2,63,142.9,61.9,140.5,61.8z"/>
</g>
<g>
	<circle class="st7" cx="60" cy="60" r="20"/>
	<g>
		<path class="st1" d="M75,63.7c0-4.1-4.2-7.4-9.4-7.4s-9.4,3.3-9.4,7.4s4.2,7.4,9.4,7.4c0.9,0,1.8-0.1,2.6-0.3l4.7,2.1l-1.6-3.3
			C73.6,68.2,75,66.1,75,63.7z M62.7,63.2c-0.7,0-1.3-0.6-1.3-1.3s0.6-1.3,1.3-1.3s1.3,0.6,1.3,1.3S63.4,63.2,62.7,63.2z M68.4,63.2
			c-0.7,0-1.3-0.6-1.3-1.3s0.6-1.3,1.3-1.3s1.3,0.6,1.3,1.3S69.1,63.2,68.4,63.2z"/>
		<path class="st1" d="M65,54.7c0.7,0,1.5,0.1,2.2,0.2c-0.9-4.4-5.5-7.8-11-7.8C50,47.1,45,51.3,45,56.5c0,2.9,1.6,5.5,4.1,7.2
			L48,66.8l3.9-1.7c0.8,0.3,1.6,0.5,2.5,0.6c-0.1-0.5-0.2-1-0.2-1.6C54.2,58.9,59,54.7,65,54.7z M59.9,51.5c0.7,0,1.3,0.6,1.3,1.3
			s-0.6,1.3-1.3,1.3s-1.3-0.6-1.3-1.3S59.1,51.5,59.9,51.5z M52.5,54.2c-0.7,0-1.3-0.6-1.3-1.3s0.6-1.3,1.3-1.3s1.3,0.6,1.3,1.3
			S53.3,54.2,52.5,54.2z"/>
	</g>
</g>
<g>
	<circle class="st16" cx="100" cy="20" r="20"/>
	<g>
		<path class="st1" d="M104.7,6h-9.3c-4,0-6.9,3.1-6.9,6.6s3.2,6.2,7.2,6.2c0.1,0,0.2,0,0.3,0c-0.3,1.1-0.3,2.7,0.8,3.7l0.1,0.1
			c-0.6-0.1-1.2-0.1-1.8-0.1c-4.5,0-8.2,2.6-8.2,5.7s3.7,5.7,8.2,5.7c2.4,0,4.5-0.7,6-1.8l0,0l0,0c0.4-0.3,0.8-0.7,1.1-1.1
			c0.9-0.9,1.9-2.4,1.8-3.9c-0.1-2.5-1.2-4.2-3-5.6c-1.7-1.3-2.4-2.3-1.7-3.7c2.1-1.1,3.5-3.1,3.5-5.4c0-2.5-0.9-4.1-2.3-5.2h2.1
			L104.7,6z M101.8,28.1c0,2.4-2.6,4.4-5.9,4.4c-3.2,0-5.9-2-5.9-4.4s2.4-4.9,7.2-4.6C99.5,24.8,101.8,26,101.8,28.1z M97.3,17.5
			c-2,0.6-4.3-1.3-5.1-4.1s0.1-5.6,2.1-6.2s4.3,1.3,5.1,4.1C100.3,14.2,99.3,16.9,97.3,17.5z"/>
		<polygon class="st1" points="109.5,17.5 109.5,13.9 107.2,13.9 107.2,17.5 103.7,17.5 103.7,19.8 107.2,19.8 107.2,23.3 
			109.5,23.3 109.5,19.8 113.1,19.8 113.1,17.5 		"/>
	</g>
</g>
<g>
	
		<linearGradient id="SVGID_2_" gradientUnits="userSpaceOnUse" x1="128.5079" y1="-698.3199" x2="154.5079" y2="-738.3199" gradientTransform="matrix(1 0 0 -1 0 -616)">
		<stop  offset="0" style="stop-color:#FFA74E"/>
		<stop  offset="0.0287" style="stop-color:#FFA249"/>
		<stop  offset="0.2268" style="stop-color:#FF8329"/>
		<stop  offset="0.4186" style="stop-color:#FF6D12"/>
		<stop  offset="0.5997" style="stop-color:#FF6005"/>
		<stop  offset="0.7591" style="stop-color:#FF5B00"/>
	</linearGradient>
	<circle class="st17" cx="140" cy="100" r="20"/>
	<g>
		
			<linearGradient id="SVGID_3_" gradientUnits="userSpaceOnUse" x1="126.0574" y1="-699.4455" x2="144.4545" y2="-722.2546" gradientTransform="matrix(1 0 0 -1 0 -616)">
			<stop  offset="0" style="stop-color:#000000;stop-opacity:0.6"/>
			<stop  offset="0.7747" style="stop-color:#000000;stop-opacity:0.1"/>
		</linearGradient>
		<path class="st18" d="M158.2,98.5c-6.8,4.8-17.1,8.3-18.6,5.9c-0.5-0.9-0.4-2.2,0.2-3.3c1.5-1.8,6.2-7.3,6.7-8.5s0.3-1.9-0.2-2.3
			s-3.8-1.4-3.8-1.4l-0.6,0.4l0.9,0.9c-2.9,0.3-11.7,3.2-11.7,3.2l0.5,1.3l-1.9,1.8c3.3,1.2,6.9-1.2,6.9-1.2
			c-0.1-0.2-0.5-0.6-0.5-0.6c1.5,0.1,1.6,1.8,1.6,1.8h-0.8c0-0.3,0-0.7,0-0.7c-4.7,3.3-8.1,1.4-8.1,1.4l0.1,2.1c0,0-1.1,0.5-2.8,1.7
			s-0.3,2.6,1,2.9c1.3,0.4,4.4,0,5.4-0.1s3.8-1.3,3.8-1.3c-1,0.6-2.4,1.6-3.7,2c-5,1.5-9,1.4-10.3-1c-1.6-2.9,2.2-9.2,9.4-13.1
			c7.4-4.1,15.7-4,17.3-0.6c1.2,2.5-0.5,5.1-2.7,7.8c-0.5,0.6-4.5,5.1-3.2,5.2C147.6,103.4,158.2,98.5,158.2,98.5z"/>
		<path class="st1" d="M158.2,98.5c-7.1,4.4-16.9,7.9-18.3,5.6c-0.5-0.9-0.2-2,0.5-3.1c1.5-1.8,6.2-7.4,6.7-8.6s-0.3-2.1-0.8-2.4
			s-3.8-1.4-3.8-1.4l-0.6,0.4l0.9,0.9c-2.9,0.3-11.7,3.2-11.7,3.2l0.5,1.3l-1.9,1.8c3.3,1.2,6.9-1.2,6.9-1.2
			c0.1-0.3-0.6-0.7-0.6-0.7c1.9,0,2,1.9,2,1.9h-0.8c0-0.3-0.1-0.6-0.1-0.6c-4.7,3.3-8.3,1.9-8.3,1.9V99c0,0-1.1,0.5-2.8,1.7
			s-0.3,2.6,1,2.9c1.3,0.4,4.4,0,5.4-0.1s4-0.9,4-0.9c-1,0.6-3,1.4-3.7,1.7c-5,1.5-9.2,1.3-10.5-1.1c-1.6-2.9,2.2-9.2,9.4-13.1
			c7.4-4.1,15.7-4,17.3-0.6c1.2,2.5-0.5,5.1-2.7,7.8c-0.5,0.6-4.5,5.1-3.2,5.2C147.4,103,158.2,98.5,158.2,98.5z"/>
	</g>
	<path class="st1" d="M128.3,110.7h-1.1l-0.2,0.5h-1l1.2-3h1.1l1.2,3h-1L128.3,110.7z M128,110l-0.4-1.1l-0.4,1.1H128z M129.8,108.1
		h0.9v3h-0.9V108.1z M131.3,108.1h0.9v0.6h-0.9V108.1z M131.3,109h0.9v2.2h-0.9V109z M132.7,108.1h0.9v1.1c0.1-0.1,0.2-0.2,0.3-0.2
		s0.2-0.1,0.4-0.1c0.3,0,0.5,0.1,0.7,0.3c0.2,0.2,0.3,0.5,0.3,0.8c0,0.2,0,0.5-0.1,0.6s-0.2,0.3-0.4,0.4c-0.1,0.1-0.3,0.1-0.5,0.1
		s-0.3,0-0.4-0.1c-0.1-0.1-0.2-0.1-0.3-0.3v0.3h-0.8L132.7,108.1L132.7,108.1z M133.6,110.1c0,0.2,0,0.3,0.1,0.4s0.2,0.1,0.3,0.1
		s0.2,0,0.3-0.1s0.1-0.2,0.1-0.4c0-0.2,0-0.3-0.1-0.4s-0.2-0.1-0.3-0.1s-0.2,0-0.3,0.1S133.6,109.9,133.6,110.1z M136.6,109.7
		l-0.9-0.1c0-0.1,0.1-0.3,0.1-0.3s0.1-0.2,0.3-0.2c0.1,0,0.2-0.1,0.3-0.1s0.3,0,0.5,0c0.3,0,0.5,0,0.6,0c0.2,0,0.3,0.1,0.4,0.2
		c0.1,0.1,0.1,0.2,0.2,0.3c0,0.1,0.1,0.2,0.1,0.3v1c0,0.1,0,0.2,0,0.2c0,0.1,0,0.1,0.1,0.2h-0.8c0-0.1-0.1-0.1-0.1-0.1V111
		c-0.1,0.1-0.2,0.2-0.4,0.2c-0.2,0.1-0.3,0.1-0.6,0.1s-0.5-0.1-0.6-0.2s-0.2-0.3-0.2-0.4c0-0.2,0.1-0.3,0.2-0.4
		c0.1-0.1,0.3-0.2,0.6-0.2c0.3-0.1,0.6-0.1,0.7-0.1c0.1,0,0.2-0.1,0.3-0.1c0-0.1,0-0.2-0.1-0.2c0,0-0.1-0.1-0.2-0.1
		c-0.1,0-0.3,0-0.3,0.1C136.6,109.5,136.6,109.6,136.6,109.7z M137.3,110.1c-0.1,0-0.3,0.1-0.4,0.1c-0.2,0-0.3,0.1-0.3,0.1
		c-0.1,0-0.1,0.1-0.1,0.2s0,0.1,0.1,0.2s0.1,0.1,0.2,0.1c0.1,0,0.2,0,0.3-0.1c0.1,0,0.1-0.1,0.2-0.2c0-0.1,0.1-0.2,0.1-0.3
		L137.3,110.1L137.3,110.1z M138.8,108.1h0.9v1.1c0.1-0.1,0.2-0.2,0.3-0.2s0.2-0.1,0.4-0.1c0.3,0,0.5,0.1,0.7,0.3
		c0.2,0.2,0.3,0.5,0.3,0.8c0,0.2,0,0.5-0.1,0.6s-0.2,0.3-0.4,0.4c-0.1,0.1-0.3,0.1-0.5,0.1s-0.3,0-0.4-0.1c-0.1-0.1-0.2-0.1-0.3-0.3
		v0.3h-0.8L138.8,108.1L138.8,108.1z M139.7,110.1c0,0.2,0,0.3,0.1,0.4s0.2,0.1,0.3,0.1s0.2,0,0.3-0.1s0.1-0.2,0.1-0.4
		c0-0.2,0-0.3-0.1-0.4s-0.2-0.1-0.3-0.1s-0.2,0-0.3,0.1S139.7,109.9,139.7,110.1z M142.6,109.7l-0.9-0.1c0-0.1,0.1-0.3,0.1-0.3
		s0.1-0.2,0.3-0.2c0.1,0,0.2-0.1,0.3-0.1s0.3,0,0.5,0c0.3,0,0.5,0,0.6,0c0.2,0,0.3,0.1,0.4,0.2c0.1,0.1,0.1,0.2,0.2,0.3
		c0,0.1,0.1,0.2,0.1,0.3v1c0,0.1,0,0.2,0,0.2c0,0.1,0,0.1,0.1,0.2h-0.8c0-0.1-0.1-0.1-0.1-0.1V111c-0.1,0.1-0.2,0.2-0.4,0.2
		c-0.2,0.1-0.3,0.1-0.6,0.1s-0.5-0.1-0.6-0.2s-0.2-0.3-0.2-0.4c0-0.2,0.1-0.3,0.2-0.4c0.1-0.1,0.3-0.2,0.6-0.2
		c0.3-0.1,0.6-0.1,0.7-0.1c0.1,0,0.2-0.1,0.3-0.1c0-0.1,0-0.2-0.1-0.2c0,0-0.1-0.1-0.2-0.1c-0.1,0-0.3,0-0.3,0.1
		C142.7,109.5,142.7,109.6,142.6,109.7z M143.4,110.1c-0.1,0-0.3,0.1-0.4,0.1c-0.2,0-0.3,0.1-0.3,0.1c-0.1,0-0.1,0.1-0.1,0.2
		s0,0.1,0.1,0.2s0.1,0.1,0.2,0.1c0.1,0,0.2,0,0.3-0.1c0.1,0,0.1-0.1,0.2-0.2c0-0.1,0.1-0.2,0.1-0.3L143.4,110.1L143.4,110.1z
		 M145,111.2v-0.4h0.5v0.4H145z M147.6,110.4h0.4c0,0.3-0.2,0.5-0.3,0.6s-0.4,0.2-0.6,0.2c-0.3,0-0.6-0.1-0.8-0.3s-0.3-0.5-0.3-0.8
		c0-0.2,0-0.4,0.1-0.6s0.2-0.3,0.4-0.4s0.4-0.1,0.6-0.1c0.3,0,0.5,0.1,0.6,0.2s0.3,0.3,0.3,0.5l-0.4,0.1c0-0.1-0.1-0.3-0.2-0.3
		c-0.1-0.1-0.2-0.1-0.3-0.1c-0.2,0-0.4,0.1-0.5,0.2s-0.2,0.3-0.2,0.6c0,0.3,0.1,0.5,0.2,0.6c0.1,0.1,0.3,0.2,0.5,0.2s0.3,0,0.4-0.1
		C147.5,110.7,147.6,110.6,147.6,110.4z M148.2,110.1c0-0.4,0.1-0.7,0.4-0.9c0.2-0.2,0.4-0.2,0.7-0.2s0.6,0.1,0.8,0.3
		s0.3,0.5,0.3,0.8s0,0.5-0.1,0.7s-0.2,0.3-0.4,0.4s-0.4,0.1-0.6,0.1c-0.3,0-0.6-0.1-0.8-0.3C148.3,110.7,148.2,110.4,148.2,110.1z
		 M148.6,110.1c0,0.3,0.1,0.5,0.2,0.6s0.3,0.2,0.5,0.2s0.4-0.1,0.5-0.2s0.2-0.4,0.2-0.6c0-0.3-0.1-0.5-0.2-0.6
		c-0.1-0.1-0.3-0.2-0.5-0.2s-0.4,0.1-0.5,0.2S148.6,109.8,148.6,110.1z M150.9,111.2V109h0.4v0.3c0.1-0.1,0.2-0.2,0.3-0.3
		s0.3-0.1,0.4-0.1c0.2,0,0.3,0,0.4,0.1c0.1,0.1,0.2,0.2,0.2,0.3c0.2-0.3,0.4-0.4,0.7-0.4c0.2,0,0.4,0.1,0.5,0.2s0.2,0.3,0.2,0.6v1.5
		h-0.4v-1.4c0-0.1,0-0.3,0-0.3s-0.1-0.1-0.1-0.2c-0.1,0-0.1-0.1-0.2-0.1c-0.2,0-0.3,0.1-0.4,0.2s-0.2,0.3-0.2,0.5v1.3h-0.4v-1.4
		c0-0.2,0-0.3-0.1-0.4s-0.2-0.1-0.3-0.1s-0.2,0-0.3,0.1s-0.2,0.1-0.2,0.2s-0.1,0.3-0.1,0.5v1.1L150.9,111.2L150.9,111.2z"/>
</g>
<g>
	<circle class="st7" cx="180" cy="100" r="20"/>
	<path class="st1" d="M180,112c-0.3,0-0.6,0-0.9,0c-5.9-0.4-10.7-5.2-11.1-11.2c-0.2-3.5,1.1-6.8,3.5-9.3c2.4-2.4,5.8-3.7,9.3-3.5
		c6,0.4,10.8,5.2,11.2,11.2c0,0.8,0,1.6-0.1,2.4c-0.3,2.2-2.2,3.8-4.4,3.8c-2.4,0-4.4-2-4.4-4.4v-1c0-1-0.5-2-1.2-2.6
		c-0.4-0.3-0.9-0.5-1.5-0.6c-1-0.1-2,0.2-2.7,0.9c-0.7,0.7-1,1.7-0.9,2.7c0.2,1.4,1.3,2.5,2.7,2.7c0.5,0.1,0.9,0,1.4-0.1
		c0.8-0.2,1.6,0.2,1.9,1c0.2,0.8-0.2,1.6-1,1.9c-0.9,0.3-1.7,0.3-2.6,0.2c-2.7-0.4-4.9-2.5-5.2-5.2c-0.3-1.9,0.4-3.8,1.7-5.2
		c1.4-1.4,3.2-2,5.2-1.8c1,0.1,2,0.5,2.9,1.2c1.5,1.1,2.4,3,2.4,4.9v1c0,0.8,0.7,1.5,1.5,1.5c0.7,0,1.3-0.5,1.4-1.2
		c0.1-0.6,0.1-1.2,0.1-1.8c-0.3-4.5-3.9-8.2-8.4-8.5c-2.6-0.2-5.1,0.8-7,2.6c-1.8,1.8-2.8,4.4-2.6,7c0.3,4.5,3.9,8.1,8.3,8.4
		c1.9,0.1,3.7-0.3,5.3-1.2c0.7-0.4,1.6-0.2,2,0.5s0.2,1.6-0.5,2C184.2,111.4,182.1,112,180,112z"/>
</g>
<g>
	<path class="st19" d="M31.5,142.4c-0.6-1.2-2.1-2.3-4-2.9c-0.2-0.1-0.3-0.3-0.2-0.5c0.6-1.4,0.6-2.7,0-3.6c-1-1.3-4.2-1.3-7.4,0.3
		c-0.2,0.1-0.5-0.1-0.4-0.4c0.5-1.7,0.4-3.1-0.4-3.9c-1.4-1.4-4.9-0.3-8,2c0,0-6.8,5.3-7,10.4c-0.3,6.3,7.1,9.3,13.2,9.2
		c4.1-0.1,6.2-0.7,9.1-2.1C30.5,148.7,32.7,144.9,31.5,142.4z"/>
	<path class="st1" d="M26.3,143.9c0.3,3.5-3.8,6.7-9.1,7.1s-9.8-2-10.1-5.5s3.8-6.7,9.1-7.1S26,140.4,26.3,143.9z"/>
	<path d="M21,144.4c-0.5-2.5-3.1-3.8-5.8-3.3c-2.8,0.5-4.6,3.1-4.2,5.4c0.5,2.3,2.9,3.7,5.8,3.2C19.6,149.2,21.5,146.7,21,144.4z
		 M15.3,147.5c-0.9,0.6-2,0.4-2.4-0.2c-0.5-0.8-0.2-1.7,0.6-2.2s1.9-0.6,2.4,0.2S16.2,147,15.3,147.5z M17.4,145
		c-0.4,0.2-0.8,0.2-1-0.1s-0.1-0.7,0.3-0.9c0.3-0.2,0.7-0.2,0.9,0.1C17.8,144.5,17.7,144.8,17.4,145z"/>
	<g>
		<g>
			<path class="st20" d="M27.2,131.1c-0.5,0-0.9,0.1-1.3,0.2c-0.6,0.2-0.9,0.8-0.7,1.4s0.8,0.9,1.4,0.7c0.2-0.1,0.4-0.1,0.7-0.1
				c1.2,0,2.2,1,2.2,2.2c0,0.2,0,0.4-0.1,0.6c-0.2,0.6,0.2,1.2,0.7,1.4c0.1,0,0.2,0,0.3,0c0.5,0,0.9-0.3,1-0.8
				c0.1-0.4,0.2-0.8,0.2-1.3C31.6,133.1,29.7,131.1,27.2,131.1z"/>
			<path class="st20" d="M34.1,130.1c-2.1-2.5-5.4-3.6-8.6-2.9c-0.6,0.1-1,0.8-0.9,1.4s0.8,1,1.4,0.9c2.3-0.5,4.8,0.3,6.3,2.1
				c1.4,1.6,1.7,3.6,1,5.6c-0.2,0.6,0.1,1.3,0.7,1.5c0.1,0.1,0.3,0.1,0.4,0.1c0.5,0,0.9-0.3,1.1-0.8C36.5,135.4,36,132.4,34.1,130.1
				z"/>
		</g>
	</g>
</g>
<g>
	<path class="st21" d="M74.3,127.6c-7.8-3.4-15.2-4.4-23.2-4.7c-1.1,0-2.2,0.6-2.6,1.7c-2.8,7.1-4.3,14.4-4.5,22.1
		c0,1.1,0.7,2.2,1.7,2.6c3,1.1,5.9,2,9,2.8c0.1,0.2,0.1,0.5,0,0.7c-0.2,0.5-1.1,2.5-2.1,3.4c-0.2,0.2-0.3,0.5-0.1,0.8
		s0.5,0.4,0.8,0.3c1.2-0.5,3.9-1.9,5.1-4.3c3.5,0.6,7,1,10.6,1.1c1.1,0,2.2-0.6,2.6-1.7c2.8-7.1,4.3-14.4,4.5-22.1
		C76,129,75.3,128,74.3,127.6z"/>
	<path class="st1" d="M68.5,144.8c-1.2,2.1-4.4,1.7-5.6,1.6c-0.2,0-0.4-0.2-0.4-0.4v-1.8c0-0.2,0.2-0.4,0.4-0.4c3.5,0.2,3.2-1,3.2-1
		c0.6-3.5-2.1-6.2-2.9-6.9c-0.1-0.1-0.2-0.3-0.1-0.5l2.2-6.7h-3.8v21.2c0,0.3-0.3,0.6-0.6,0.6h-1.8c-0.3,0-0.6-0.3-0.6-0.6v-23
		c0-0.4,0.4-0.8,0.8-0.8h2.1h5.1c0.4,0,0.8,0.2,1.1,0.5l0.5,0.7c0.2,0.3,0.3,0.7,0.3,1.1l0,0c0,0.1,0,0.2-0.1,0.2l-2.5,6.8
		C69.7,138.3,69.7,142.6,68.5,144.8z M56.9,134.3l-4,0.1c-0.2,0-0.4-0.2-0.4-0.4v-2.6c0-0.2,0.1-0.3,0.2-0.3l4.4-1.2
		c0.3-0.1,0.4-0.4,0.3-0.7l-0.7-1.4c-0.1-0.2-0.4-0.3-0.6-0.2c-1.1,0.4-2.2,0.7-3.2,1c-0.2,0.1-0.4-0.1-0.4-0.3c0-0.4,0-0.9,0-1.3
		c0-0.5-0.4-0.9-0.9-0.9h-1.3c-0.5,0-0.9,0.4-0.9,0.9v2.1c0,0.2-0.1,0.3-0.3,0.3c-1.1,0.2-1.9,0.2-2.6,0.3c-0.3,0.9-0.5,1.8-0.8,2.8
		c1.1-0.1,2.6-0.3,3.3-0.5c0.2,0,0.4,0.1,0.4,0.3v1.9c0,0.3-0.2,0.5-0.5,0.5l-3.7,0.1c-0.2,0.9-0.4,1.8-0.5,2.6l4.2-0.1
		c0.3,0,0.5,0.2,0.5,0.5v2.1c0,0.3-0.2,0.5-0.5,0.5h-4.7c0,0.1-0.2,1.7-0.3,2.6h4.9c0.3,0,0.5,0.2,0.5,0.5v0.6
		c0.1,3.9-2.7,3.6-2.7,3.6v2.3c0.5,0.2,1,0.4,1.5,0.5c4.1-1.2,4.2-5.4,4.2-5.4v-1.6c0-0.3,0.2-0.5,0.5-0.5h3.7
		c0.4,0,0.6-0.3,0.6-0.6V141c0-0.4-0.3-0.6-0.6-0.6h-3.7c-0.3,0-0.5-0.2-0.5-0.5v-2.4c0-0.2,0.2-0.4,0.4-0.4h4
		c0.3,0,0.6-0.3,0.6-0.6v-1.4C57.6,134.5,57.3,134.3,56.9,134.3z"/>
</g>
</svg>
